# xmcd CD database file
#
# Track frame offsets:
#	150
#	23336
#	47070
#	66901
#	94495
#	112495
#	130916
#	154529
#	164827
#	184104
#	196567
#	213033
#	230886
#	244148
#
# Disc length: 4223 seconds
#
# Revision: 14
# Processed by: cddbd v1.5.1PL2 Copyright (c) Steve Scherf et al.
# Submitted via: CDex 1.51
#
DISCID=c5107d0e
DTITLE=Joe Satriani - Time Machine [CD1]
DYEAR=1993
DGENRE=Instrumental
TTITLE0=Time Machine
TTITLE1=The Mighty Turtle Head
TTITLE2=All Alone
TTITLE3=Banana Mango II
TTITLE4=Thinking of You
TTITLE5=Crazy
TTITLE6=Speed of Light
TTITLE7=Baroque
TTITLE8=Dweller On The Threshold
TTITLE9=Banana Mango
TTITLE10=Dreaming #11
TTITLE11=I Am Become Death
TTITLE12=Saying Goodbye
TTITLE13=Woodstock Jam
EXTD=YEAR: 1993
EXTT0=
EXTT1=
EXTT2=
EXTT3=
EXTT4=
EXTT5=
EXTT6=
EXTT7=
EXTT8=
EXTT9=
EXTT10=
EXTT11=
EXTT12=
EXTT13=
PLAYORDER=
